<svg width="80" height="80" viewBox="0 0 80 80" fill="none" xmlns="http://www.w3.org/2000/svg">
<path d="M13.5391 32.8303L36.451 43.6274C38.4772 44.6281 39.3474 44.6281 41.5425 43.6274L64.4544 32.8303C66.1429 32.0066 66.1948 28.5006 64.4544 27.4999L41.5425 14.8171C39.7436 13.7006 38.4772 13.755 36.451 14.8171L13.5391 27.4999C11.7987 28.6776 11.7402 31.8296 13.5391 32.8303ZM13.5391 44.1447L36.451 54.9418C38.4772 55.9425 39.3474 55.9425 41.5425 54.9418L64.4544 44.1447C65.5844 43.5933 66 40.9928 66 39.5972C64.5258 40.3665 62.4411 41.4693 62.4022 41.4829L38.9968 52.7838L15.5978 41.4761C15.6758 41.5306 13.5262 40.5094 12 39.5904C12 40.9587 12.3247 43.464 13.5391 44.1447ZM38.9968 64.0982L15.5978 52.7838C15.6758 52.8382 13.5262 51.8171 12 50.898C12 52.2664 12.3312 54.7716 13.5456 55.4456L36.451 66.2494C38.4772 67.2502 39.3474 67.2502 41.5425 66.2494L64.4544 55.4524C65.5844 54.901 66 52.3004 66 50.9048C64.5258 51.6741 62.4411 52.777 62.4022 52.7906L38.9968 64.0982Z" fill="#8E78FF"/>
</svg>
