<svg width="80" height="80" viewBox="0 0 80 80" fill="none" xmlns="http://www.w3.org/2000/svg">
<path d="M27.5645 27.7861C24.8448 26.7649 22.2611 25.3693 19.9153 23.6333C16.3457 28.0584 14.17 33.6069 14 39.5979H25.3547C25.4227 35.4451 26.2046 31.4624 27.5645 27.7861ZM37.2874 14C30.9301 14.7829 25.3207 17.8125 21.1732 22.2376C23.3829 23.8035 25.7627 25.097 28.2784 26.0501C30.3182 21.2164 33.4798 17.0636 37.2874 14ZM52.8916 25.8459C55.3053 24.9268 57.5491 23.6333 59.6568 22.1015C55.5215 17.7217 50.0162 14.8874 44.0526 14.0681C47.7582 17.0976 50.8178 21.1143 52.8916 25.8459ZM25.3207 41.5042H14C14.204 47.0527 16.1418 52.431 19.5414 56.8221C21.9551 55.018 24.5728 53.5543 27.3605 52.465C26.1366 48.9249 25.4227 45.2145 25.3207 41.5042ZM53.8435 52.6692C56.5292 53.7585 59.0109 55.1882 61.3226 56.9583C64.7902 52.5331 66.762 47.1207 66.966 41.5042H55.9173C55.8493 45.3166 55.1013 49.0951 53.8435 52.6692ZM55.9513 39.5979H67C66.796 33.4708 64.5863 27.8882 60.9487 23.4631C58.7049 25.131 56.2572 26.4926 53.6395 27.5478C55.0334 31.2922 55.8833 35.377 55.9513 39.5979ZM43.8146 66.966C50.2399 66.149 55.9173 63.0173 60.0648 58.422C57.923 56.8221 55.6113 55.4945 53.1296 54.4733C51.0218 59.4772 47.7922 63.8003 43.8146 66.966ZM51.1238 26.4586C48.8801 21.4207 45.4804 17.1997 41.2989 14.2723V28.1946C44.6985 28.1606 47.9962 27.5819 51.1238 26.4586ZM28.0404 54.2351C25.4567 55.2563 22.975 56.6179 20.7312 58.2518C24.9808 63.0173 30.8621 66.2511 37.5253 67C33.4458 63.8003 30.1482 59.4091 28.0404 54.2351ZM54.0815 39.5979C53.9795 35.5472 53.2316 31.7007 51.9057 28.1946C48.5061 29.352 44.9365 29.9987 41.3669 30.0668V39.5979H54.0815ZM41.3329 50.0822C45.1065 50.1843 48.7441 50.8651 52.1097 52.0565C53.2996 48.7887 53.9795 45.2486 54.0815 41.5382H41.3329V50.0822ZM27.1905 41.5042C27.2925 45.1464 27.9724 48.6185 29.0943 51.8182C32.3239 50.763 35.8255 50.1503 39.3951 50.0482V41.5042H27.1905ZM29.7742 53.6223C31.916 58.7624 35.3156 63.1195 39.4631 66.183V52.0225C36.1315 52.0225 32.9019 52.6012 29.7742 53.6223ZM39.4631 14.6808C35.4516 17.6423 32.1879 21.7611 30.0122 26.6969C33.0718 27.6159 36.2335 28.1946 39.4631 28.2627V14.6808ZM41.3329 66.4894C45.6504 63.4599 49.186 59.0347 51.3958 53.7926C48.1321 52.6692 44.7665 52.0565 41.3329 51.9544V66.4894ZM39.4631 30.1349C35.9955 30.0328 32.5959 29.4541 29.2983 28.4329C28.0064 31.9049 27.2585 35.6834 27.1905 39.632H39.4291V30.1349H39.4631Z" fill="#8E78FF"/>
</svg>
