<svg width="48" height="48" viewBox="0 0 48 48" fill="none" xmlns="http://www.w3.org/2000/svg">
<path d="M31.6616 22.6584L22.9141 19.325C22.6237 20.0489 22.0472 20.6991 21.397 21.4273C19.8798 22.8058 18.3627 23.6727 16.4077 23.9632V28.6013C18.0722 28.7444 19.2253 29.3252 20.4564 30.4132C20.4564 30.5563 20.5994 30.7037 20.7468 30.8467L31.7353 24.6914C31.5923 24.2579 31.4449 23.8201 31.4449 23.1699C31.5186 23.0962 31.5186 22.9488 31.6616 22.6584ZM40.4828 27.0061C39.4685 28.0942 38.2418 28.5276 36.7246 28.5276C35.3505 28.5276 34.1931 28.0942 33.2525 27.1535L22.2639 33.7423C22.407 34.1758 22.407 34.8303 22.407 35.2638C22.407 37.2188 21.8305 38.7403 20.4564 40.045C19.0822 41.4235 17.6388 42 15.6838 42C13.8762 42 12.2117 41.4191 10.9113 40.045C9.68019 38.6709 8.96063 37.2188 8.96063 35.2638C8.96063 33.4519 9.68453 31.7874 10.9113 30.4826C11.6352 29.7587 12.5758 29.2515 13.4427 28.9611V23.9632C11.6352 23.6727 9.97062 22.7321 8.6702 21.4273C6.86695 19.6154 6 17.5174 6 14.9816C6 12.5931 6.86695 10.3477 8.67453 8.67887C10.3391 6.86695 12.5801 6 14.9642 6C17.4957 6 19.5894 6.87128 21.397 8.67887C23.0615 10.3434 23.9285 12.5888 23.9285 14.9816V16.36L32.676 19.9839C32.819 19.8408 32.9664 19.6934 32.9664 19.5504C34.0501 18.6791 35.3505 18.0289 36.7246 18.0289C38.2418 18.0289 39.3992 18.6098 40.4828 19.5504C41.5665 20.6384 42 21.9388 42 23.3173C42 24.7607 41.5665 25.9918 40.4828 27.0061Z" fill="#00D4FF"/>
</svg>
