<svg width="48" height="48" viewBox="0 0 48 48" fill="none" xmlns="http://www.w3.org/2000/svg">
<path d="M23.2012 28.4641C21.209 30.4219 19.3074 31.3119 17.4058 31.3119C12.7876 31.3119 9.70877 28.1971 9.70877 23.7473C9.70877 19.5646 12.9687 16.7167 17.4058 16.7167C22.2051 16.7167 25.7367 20.1875 26.28 26.8621V27.1291C26.6422 32.2018 29.6305 35.4946 33.7959 35.9396C37.5086 36.3846 41.3119 34.3377 42.489 30.8669C44.8434 24.1923 38.6858 18.2296 31.7132 20.6325L33.2526 24.9933C36.5125 23.8363 39.048 26.3282 37.9614 29.265C37.5086 30.5109 35.9692 31.3119 34.3393 31.1339C32.5282 30.9559 31.351 29.621 31.0793 26.8621V26.6842C30.536 17.5177 24.9217 12 17.4963 12C10.4332 12 5 16.8057 5 23.6583C5 30.6889 10.2521 35.9396 17.4963 35.9396C20.7563 35.9396 23.8351 34.5157 26.6422 31.7569L23.2012 28.4641Z" fill="#00D4FF"/>
</svg>
