<svg width="80" height="80" viewBox="0 0 80 80" fill="none" xmlns="http://www.w3.org/2000/svg">
<g clip-path="url(#clip0_513_2035)">
<path d="M52.4922 58.1694V11.9542C52.4922 9.77033 50.7363 8 48.5702 8L17.922 8C15.7559 8 14 9.77033 14 11.9542V58.1694C14 60.3532 15.7559 62.1236 17.922 62.1236H48.5702C50.7363 62.1236 52.4922 60.3532 52.4922 58.1694Z" fill="#00D4FF"/>
<path d="M20.0576 20.1905H35.1865" stroke="white" stroke-width="2" stroke-miterlimit="10" stroke-linecap="round"/>
<path d="M20.0576 38.4762H32.2495" stroke="white" stroke-width="2" stroke-miterlimit="10" stroke-linecap="round"/>
<path d="M20.0576 29.3333H39.845" stroke="white" stroke-width="2" stroke-miterlimit="10" stroke-linecap="round"/>
<path d="M49.7284 70.8251C58.5886 70.8251 65.7713 63.5835 65.7713 54.6506C65.7713 45.7177 58.5886 38.4762 49.7284 38.4762C40.8682 38.4762 33.6855 45.7177 33.6855 54.6506C33.6855 63.5835 40.8682 70.8251 49.7284 70.8251Z" fill="#8E78FF"/>
<path d="M58.5706 56.0017C57.9115 55.7969 57.1965 56.1526 56.9842 56.7886C56.9842 56.7886 56.9842 56.7994 56.9842 56.8102C56.1687 59.4943 53.845 61.4993 50.985 61.9844V52.8756H52.873C53.5657 52.8756 54.1355 52.3366 54.1355 51.6575C54.1355 50.9784 53.5769 50.4394 52.873 50.4394H50.7728V48.5314H51.0074C51.7 48.5314 52.2698 47.9925 52.2698 47.3133C52.2698 46.6342 51.7112 46.0952 51.0074 46.0952H48.0133C47.3207 46.0952 46.7509 46.6342 46.7509 47.3133C46.7509 47.9925 47.3095 48.5314 48.0133 48.5314H48.2256V50.4394H46.1253C45.4327 50.4394 44.8629 50.9784 44.8629 51.6575C44.8629 52.3366 45.4215 52.8756 46.1253 52.8756H48.2256V61.7796C45.388 61.2945 43.0754 59.3218 42.2264 56.6592C42.0141 56.0125 41.3103 55.646 40.64 55.8508C39.9697 56.0556 39.5898 56.7347 39.8021 57.3815C41.4555 62.6096 47.1978 65.5416 52.6049 63.9462C55.8559 62.9869 58.4031 60.5291 59.4085 57.3815C59.5202 56.7778 59.1627 56.1957 58.5706 55.9909V56.0017Z" fill="white"/>
<g clip-path="url(#clip1_513_2035)">
<path d="M52.493 38.72V50.4381H50.7667V48.5333H51.009C51.7055 48.5333 52.2658 47.9848 52.2658 47.3143C52.2658 46.6438 51.7055 46.0952 51.009 46.0952H48.0107C47.3141 46.0952 46.7538 46.6286 46.7538 47.3143C46.7538 48 47.3141 48.5333 48.0107 48.5333H48.2227V50.4381H46.1178C45.4364 50.4381 44.861 50.9714 44.861 51.6571C44.861 52.3429 45.4213 52.8762 46.1178 52.8762H48.2227V61.7752C45.391 61.2876 43.0741 59.3219 42.2261 56.6552C42.0141 56.0152 41.3024 55.6495 40.6361 55.8476C39.9698 56.061 39.5913 56.7314 39.8033 57.3867C40.409 59.3219 41.5901 60.9371 43.0893 62.1257H35.5027C34.3367 59.8857 33.6855 57.341 33.6855 54.6438C33.6855 45.7143 40.8633 38.4762 49.7218 38.4762C50.6607 38.4762 51.5844 38.5524 52.493 38.72Z" fill="#8E78FF"/>
</g>
</g>
<defs>
<clipPath id="clip0_513_2035">
<rect width="53" height="64" fill="white" transform="translate(14 8)"/>
</clipPath>
<clipPath id="clip1_513_2035">
<rect width="18.8074" height="23.6495" fill="white" transform="translate(33.6855 38.4762)"/>
</clipPath>
</defs>
</svg>
