<svg width="44" height="40" viewBox="0 0 44 40" fill="currentColor" xmlns="http://www.w3.org/2000/svg">
<path d="M36.058 11.2729C34.4439 13.5391 32.9032 15.9941 31.0745 18.2055C27.0095 23.1128 22.2026 27.2154 16.8033 30.5627C15.0262 31.6629 13.0562 32.4539 11.1405 33.3078C10.8307 33.4446 10.1895 33.3023 9.94491 33.0505C6.27386 29.2626 4.74131 24.6482 5.35542 19.4563C6.20864 12.2719 11.4802 6.06454 18.8277 4.5565C25.6508 3.1552 31.7756 5.55548 36.0607 11.2729H36.058Z" fill="currentColor"/>
<path d="M43.1204 6.72692C42.4792 10.1453 41.0336 13.2134 39.3271 16.1912C39.2755 16.2815 39.2293 16.3855 39.194 16.495C30.7976 29.8319 15.4014 37.4296 14.9205 37.665C14.9123 37.6677 14.9096 37.6705 14.9096 37.6705C14.8661 37.6814 14.8199 37.6978 14.7792 37.717C11.8608 38.9349 8.89626 39.9722 5.70345 39.9996C1.07048 40.0379 -0.358811 36.6879 0.0732375 33.2038C0.423767 30.3821 1.68459 27.8805 3.13833 25.483C3.26605 25.2722 3.51332 25.1381 3.70353 24.9685C3.79048 25.0232 3.87472 25.0779 3.95895 25.1354C3.77146 25.7512 3.54321 26.3615 3.40463 26.9883C3.10573 28.365 2.70628 29.7416 2.61118 31.1375C2.35304 34.9226 4.9725 35.9517 7.84195 35.5138C12.7195 34.7666 16.8742 32.3609 20.7871 29.4898C26.7461 25.1162 32.0013 20.0365 35.9359 13.6924C37.3435 11.4262 38.3272 8.97666 38.3788 6.25617C38.4195 4.09674 37.1098 2.78576 35.0093 2.41628C32.6507 1.99753 30.4878 2.68723 28.0966 3.38788C28.2134 3.03482 28.2216 2.72281 28.3574 2.64618C31.6861 0.779605 35.1887 -0.556009 39.0581 0.229485C42.2237 0.869923 43.721 3.52199 43.1204 6.72692Z" fill="#00D4FF"/>
<path d="M26.1831 38.5076C22.8109 39.2302 19.5964 38.8744 16.4063 37.6647C15.9769 37.5004 15.3819 37.5114 14.9199 37.6647C15.4009 37.4293 30.797 29.8316 39.1934 16.4946C39.0847 16.8231 39.0494 17.2117 39.1282 17.5128C41.5629 27.0208 35.7207 36.4632 26.1831 38.5076Z" fill="currentColor"/>
</svg>
