<svg width="206" height="40" viewBox="0 0 206 40" fill="none" xmlns="http://www.w3.org/2000/svg">
<g clip-path="url(#clip0_629_858)">
<path d="M59.674 35.8428C53.2232 35.7963 47.6419 30.8808 47.669 23.7511C47.6935 16.6844 53.3509 11.539 59.9729 11.6923C66.5759 11.8428 71.9616 16.7693 71.9752 23.7347C71.986 31.0669 65.9292 35.8702 59.674 35.8456V35.8428ZM59.8751 15.8989C55.3291 15.7046 51.9297 19.5555 52.0303 23.8469C52.1363 28.3273 55.0682 31.7895 59.7936 31.7977C64.2608 31.8059 67.6492 28.1959 67.5514 23.4993C67.4753 19.8073 64.6983 15.7402 59.8751 15.9017V15.8989Z" fill="white"/>
<path d="M146.624 35.3935C145.211 35.3935 143.882 35.4319 142.562 35.3607C142.282 35.3443 141.902 34.9803 141.774 34.6847C141.279 33.5352 140.91 32.3337 140.404 31.1896C140.268 30.8776 139.828 30.5054 139.521 30.4999C136.635 30.4479 133.75 30.4698 130.782 30.4698C130.187 32.0901 129.595 33.6994 128.989 35.3525H124.288C125.481 32.1667 126.647 29.0302 127.826 25.9019C129.435 21.6296 131.076 17.371 132.649 13.0877C132.929 12.3241 133.309 11.9984 134.089 12.1216C134.269 12.1489 134.459 12.127 134.644 12.127C136.723 12.127 138.125 13.0822 138.85 14.9926C141.331 21.4928 143.82 27.9875 146.306 34.4849C146.409 34.7531 146.496 35.0295 146.624 35.3935ZM132.171 26.3754H138.652C137.567 23.4278 136.519 20.5759 135.399 17.5242C134.28 20.5923 133.239 23.4442 132.171 26.3754Z" fill="white"/>
<path d="M86.2871 12.1572H90.3685V20.4118C92.9146 18.3919 95.5748 17.902 98.4605 18.8462C101.474 19.8315 103.67 22.9899 103.77 26.1921C103.854 28.8113 103.384 31.2335 101.583 33.2014C98.61 36.4473 94.0259 36.7375 90.4663 33.8883C90.4337 34.4111 90.4065 34.8599 90.3793 35.3526H86.2871V12.1572ZM99.5393 27.1063C99.7377 24.4159 97.8329 22.0074 94.9716 21.9773C92.3439 21.9499 90.4201 24.1778 90.4228 27.1719C90.4255 30.1032 92.2434 32.0546 94.9607 32.0436C97.7676 32.0327 99.5393 30.1196 99.5393 27.1035V27.1063Z" fill="white"/>
<path d="M170.838 19.7548V12.0039H174.96V35.3306H171.3V33.8062C167.526 37.824 160.787 35.4784 159.567 29.7172C158.928 26.7039 159.107 23.759 161.069 21.1397C163.148 18.3645 167.488 17.5763 170.357 19.5113C170.471 19.5879 170.602 19.6344 170.838 19.7521V19.7548ZM170.86 27.0679C170.86 26.4165 170.86 26.006 170.86 25.5982C170.852 23.8794 170.031 22.5903 168.708 22.2099C166.751 21.6488 165.088 22.1496 164.178 23.696C162.99 25.7158 162.982 27.8835 163.83 29.9991C164.773 32.3583 167.887 32.8756 169.71 31.0775C170.928 29.8787 170.887 28.357 170.86 27.0679Z" fill="white"/>
<path d="M191.718 28.4665H180.675C181.055 31.395 183.188 32.8099 185.93 31.9177C187.055 31.551 188.085 30.8914 189.24 30.3276C189.732 31.2362 190.272 32.2325 190.873 33.3354C188.167 35.2732 185.311 36.4966 181.963 35.3909C178.735 34.3235 177.115 31.9095 176.621 28.5951C176.21 25.8554 176.773 23.3676 178.439 21.1863C180.297 18.7504 182.876 18.058 185.735 18.6574C188.49 19.2348 190.245 21.1206 191.014 23.7945C191.425 25.226 191.476 26.7641 191.723 28.4665H191.718ZM187.487 25.2725C187.126 22.6396 185.482 21.7583 183.566 21.9772C182.034 22.1524 180.928 23.5373 180.93 25.2725H187.487Z" fill="white"/>
<path d="M114.867 22.3987H112.984V18.9803H114.827V14.2153H119.049V18.8736H123.239V22.3795H119.096C119.096 25.1274 119.049 27.7603 119.12 30.3905C119.144 31.3402 120.106 31.9505 121.242 31.9013C121.821 31.8766 122.394 31.7398 123.082 31.6358C123.082 32.643 123.125 33.6419 123.052 34.63C123.033 34.8845 122.682 35.2567 122.419 35.3306C118.109 36.5157 114.876 34.5314 114.87 29.8951C114.867 27.4428 114.87 24.9906 114.87 22.396L114.867 22.3987Z" fill="white"/>
<path d="M206 18.9176C204.502 23.0148 203.041 27.0134 201.581 31.0148C201.128 32.2601 200.712 33.5246 200.201 34.748C200.084 35.0299 199.668 35.3446 199.37 35.3692C196.5 35.6019 196.508 35.5827 195.516 32.8786C193.867 28.3901 192.201 23.9043 190.546 19.4185C190.498 19.2871 190.46 19.1503 190.392 18.945H194.747C195.897 22.6152 197.054 26.3183 198.291 30.2622C199.041 27.9248 199.723 25.7983 200.408 23.6717C200.848 22.3059 201.258 20.9265 201.763 19.5855C201.872 19.2953 202.318 18.9724 202.63 18.9505C203.698 18.8711 204.771 18.9204 206.005 18.9204L206 18.9176Z" fill="white"/>
<path d="M148.488 12.1821H152.581V35.3091H148.488V12.1821Z" fill="white"/>
<path d="M74.2664 18.8821H78.2037V20.8144C81.6248 18.6029 82.0487 18.4524 84.1464 18.7097C84.1573 18.8766 84.1818 19.0545 84.1818 19.2324C84.1845 20.3436 84.1818 21.4548 84.1818 22.6399C83.7008 22.6399 83.3068 22.6673 82.9182 22.6344C80.3613 22.4209 78.4537 24.0029 78.4836 27.1695C78.5108 29.9228 78.4891 32.6734 78.4891 35.4952H74.2637V18.8821H74.2664Z" fill="white"/>
<path d="M110.702 35.5033H106.504V18.8848H110.702V35.5033Z" fill="white"/>
<path d="M108.637 12.1275C110.169 12.1329 111.139 13.0881 111.118 14.5743C111.099 15.9728 110.001 17.0402 108.58 17.0457C107.164 17.0512 106.009 15.9646 105.985 14.6016C105.96 13.1757 107.088 12.122 108.637 12.1275Z" fill="white"/>
<path d="M154.415 33.2889C154.434 31.9397 155.35 31.0912 156.771 31.1022C158.102 31.1131 159.105 32.1285 159.056 33.4148C159.01 34.6382 157.901 35.6427 156.624 35.6208C155.233 35.5962 154.399 34.7149 154.418 33.2917L154.415 33.2889Z" fill="white"/>
<path d="M36.058 11.2734C34.4439 13.5395 32.9032 15.9946 31.0745 18.206C27.0095 23.1133 22.2026 27.2159 16.8033 30.5632C15.0262 31.6634 13.0562 32.4544 11.1405 33.3083C10.8307 33.4451 10.1895 33.3028 9.94491 33.051C6.27386 29.2631 4.74131 24.6487 5.35542 19.4568C6.20864 12.2724 11.4802 6.06503 18.8277 4.55699C25.6508 3.15569 31.7756 5.55597 36.0607 11.2734H36.058Z" fill="white"/>
<path d="M43.1204 6.72741C42.4792 10.1458 41.0336 13.2139 39.3271 16.1917C39.2755 16.282 39.2293 16.386 39.194 16.4955C30.7976 29.8324 15.4014 37.4301 14.9205 37.6655C14.9123 37.6682 14.9096 37.671 14.9096 37.671C14.8661 37.6819 14.8199 37.6983 14.7792 37.7175C11.8608 38.9354 8.89626 39.9727 5.70345 40.0001C1.07048 40.0384 -0.358811 36.6884 0.0732375 33.2043C0.423767 30.3826 1.68459 27.881 3.13833 25.4835C3.26605 25.2727 3.51332 25.1386 3.70353 24.9689C3.79048 25.0237 3.87472 25.0784 3.95895 25.1359C3.77146 25.7517 3.54321 26.362 3.40463 26.9888C3.10573 28.3654 2.70628 29.7421 2.61118 31.1379C2.35304 34.9231 4.9725 35.9522 7.84195 35.5143C12.7195 34.7671 16.8742 32.3613 20.7871 29.4903C26.7461 25.1167 32.0013 20.037 35.9359 13.6929C37.3435 11.4267 38.3272 8.97715 38.3788 6.25666C38.4195 4.09723 37.1098 2.78625 35.0093 2.41677C32.6507 1.99802 30.4878 2.68772 28.0966 3.38837C28.2134 3.03531 28.2216 2.7233 28.3574 2.64667C31.6861 0.780093 35.1887 -0.555521 39.0581 0.229973C42.2237 0.870411 43.721 3.52248 43.1204 6.72741Z" fill="#00D4FF"/>
<path d="M26.1831 38.5081C22.8109 39.2307 19.5964 38.8749 16.4063 37.6651C15.9769 37.5009 15.3819 37.5119 14.9199 37.6651C15.4009 37.4298 30.797 29.8321 39.1934 16.4951C39.0847 16.8235 39.0494 17.2122 39.1282 17.5132C41.5629 27.0213 35.7207 36.4636 26.1831 38.5081Z" fill="white"/>
</g>
<defs>
<clipPath id="clip0_629_858">
<rect width="206" height="40" fill="white"/>
</clipPath>
</defs>
</svg>
