<svg width="48" height="48" viewBox="0 0 48 48" fill="none" xmlns="http://www.w3.org/2000/svg">
<path d="M42 32.9931C42 34.2654 41.623 35.5092 40.9166 36.5671C40.2102 37.625 39.2062 38.4495 38.0315 38.9364C36.8569 39.4233 35.5643 39.5507 34.3173 39.3025C33.0703 39.0543 31.9248 38.4416 31.0257 37.5419C30.1267 36.6422 29.5144 35.496 29.2664 34.2481C29.0183 33.0002 29.1456 31.7067 29.6322 30.5312C30.1188 29.3557 30.9427 28.351 31.9999 27.6442C33.0571 26.9373 34.3 26.56 35.5714 26.56C35.6229 26.56 35.6717 26.5742 35.7231 26.5754V26.56C35.7129 23.7779 34.7066 21.0916 32.8869 18.9883L35.1613 15.9519C37.8959 18.806 39.4245 22.606 39.4286 26.56C39.4286 26.9794 39.3579 27.3796 39.3244 27.79C40.1511 28.3824 40.825 29.1633 41.2903 30.0681C41.7555 30.9729 41.9988 31.9755 42 32.9931ZM25.2857 18.8404C24.1661 18.8389 23.0664 18.5438 22.0964 17.9843C21.1263 17.4249 20.3198 16.6208 19.7571 15.6521C16.8917 16.769 14.5776 18.9648 13.3106 21.7687L9.87 20.3843C10.7229 18.4467 11.9639 16.7048 13.5164 15.2663C15.0688 13.8279 16.8997 12.7234 18.8957 12.0213C18.9735 10.7704 19.4155 9.56957 20.1672 8.56703C20.9189 7.56449 21.9475 6.80405 23.1259 6.37951C24.3044 5.95497 25.5812 5.8849 26.799 6.17794C28.0168 6.47097 29.1222 7.1143 29.979 8.02857C30.8357 8.94284 31.4063 10.0881 31.6204 11.323C31.8344 12.5579 31.6826 13.8285 31.1835 14.9781C30.6845 16.1277 29.8601 17.106 28.8121 17.7923C27.7641 18.4786 26.5382 18.843 25.2857 18.8404ZM18.8571 30.4198C18.8545 31.3855 18.6334 32.3381 18.2103 33.206C17.7872 34.0739 17.1732 34.8347 16.4143 35.4312C17.8187 36.6881 19.5165 37.5714 21.3514 38C23.1863 38.4285 25.0994 38.3884 26.9147 37.8835L28.0809 41.383C25.3403 42.2004 22.4217 42.2057 19.6782 41.3983C16.9346 40.591 14.4836 39.0055 12.6214 36.8336C12.5559 36.8336 12.4929 36.8529 12.4286 36.8529C11.1571 36.8529 9.91422 36.4756 8.85705 35.7687C7.79988 35.0618 6.97591 34.0571 6.48935 32.8817C6.00279 31.7062 5.87548 30.4127 6.12353 29.1648C6.37157 27.9169 6.98384 26.7707 7.88289 25.871C8.78194 24.9713 9.9274 24.3586 11.1744 24.1104C12.4214 23.8622 13.714 23.9896 14.8887 24.4765C16.0633 24.9634 17.0674 25.7879 17.7737 26.8458C18.4801 27.9037 18.8571 29.1475 18.8571 30.4198Z" fill="#8E78FF"/>
</svg>
