<svg width="80" height="80" viewBox="0 0 80 80" fill="none" xmlns="http://www.w3.org/2000/svg">
<path d="M52.8934 45.8997C48.2075 45.8997 44.2565 42.5635 43.2363 38.1125H14.9654C13.3314 38.1125 12 39.4557 12 41.115V53.1338C12 54.7931 13.3314 56.1363 14.9654 56.1363H37.3919C38.4899 51.8257 41.0058 48.1208 44.464 45.8997C46.6945 47.9101 49.6686 49.1743 52.8934 49.1743C53.0749 49.1743 53.2565 49.1743 53.438 49.1568V45.8909C53.2565 45.8909 53.0749 45.8997 52.8934 45.8997ZM28.2795 47.1288H19.4006C18.5879 47.1288 17.9222 46.4528 17.9222 45.6187C17.9222 44.7847 18.5879 44.1175 19.4006 44.1175H28.2795C29.1009 44.1175 29.7579 44.7935 29.7579 45.6187C29.7579 46.444 29.1009 47.1288 28.2795 47.1288ZM50.4726 19H14.9654C13.3314 19 12 20.3432 12 22.0025V34.0301C12 35.6894 13.3314 37.0326 14.9654 37.0326H43.0461C43.0029 36.6375 42.9769 36.2425 42.9769 35.8386C42.9769 32.3181 44.9654 28.7889 47.9395 27.033C49.5821 26.0585 51.5274 25.5493 53.438 25.6283V22.0025C53.438 20.3432 52.1066 19 50.4726 19ZM28.2795 28.0163H19.4006C18.5879 28.0163 17.9222 27.3403 17.9222 26.5151C17.9222 25.6898 18.5879 25.0138 19.4006 25.0138H28.2795C29.0922 25.0138 29.7579 25.681 29.7579 26.5151C29.7579 27.3491 29.1009 28.0163 28.2795 28.0163Z" fill="#00D4FF"/>
<path d="M53.4377 25.6284V34.0301C53.4377 35.6894 52.1062 37.0326 50.4722 37.0326H43.0457C43.0025 36.6376 42.9766 36.2425 42.9766 35.8386C42.9766 32.3182 44.965 28.7889 47.9391 27.033C49.5817 26.0585 51.527 25.5493 53.4377 25.6284Z" fill="#00D4FF"/>
<path d="M53.4381 41.115V45.8909C53.2565 45.8909 53.0749 45.8997 52.8934 45.8997C48.2075 45.8997 44.2565 42.5636 43.2363 38.1125H50.4726C52.1066 38.1125 53.4381 39.4557 53.4381 41.115Z" fill="#00D4FF"/>
<path d="M53.4377 49.1568V53.1338C53.4377 54.7931 52.1063 56.1363 50.4723 56.1363H37.3916C38.4896 51.8257 41.0054 48.1208 44.4636 45.8997C46.6942 47.9101 49.6683 49.1743 52.893 49.1743C53.0746 49.1743 53.2562 49.1743 53.4377 49.1568Z" fill="#00D4FF"/>
<path d="M67 35.2566C64.1019 31.3249 59.4279 29 54.449 29C45.9183 29 39 35.7163 39 43.9956C39 52.2793 45.9183 59 54.449 59C59.2689 59 63.8236 56.8109 66.7438 53.0849L54.449 43.9956L67 35.2566ZM57.0114 33.5841C58.1246 33.5841 59.0215 34.4597 59.0215 35.5368C59.0215 36.6138 58.1202 37.4895 57.0114 37.4895C55.8981 37.4895 55.0013 36.6138 55.0013 35.5368C54.9968 34.4597 55.8981 33.5841 57.0114 33.5841Z" fill="#8E78FF"/>
</svg>
