<svg width="80" height="80" viewBox="0 0 80 80" fill="none" xmlns="http://www.w3.org/2000/svg">
<g clip-path="url(#clip0_513_1992)">
<path d="M44.7179 38.5103C44.7179 38.9194 44.7441 39.3196 44.7878 39.7199C44.8314 40.0934 44.8925 40.4581 44.9798 40.8138C45.8792 44.7627 49.0576 47.8488 53.0043 48.5514V51.6198C53.0043 51.7176 52.9956 51.8066 52.9869 51.8955C50.411 51.5309 48.0622 50.3747 46.2198 48.7026C42.7271 50.9528 40.1861 54.706 39.0772 59.0728C39.0073 59.3397 38.9462 59.6065 38.8938 59.8733L32.3625 63.2085C32.2868 63.2085 32.2082 63.247 32.1267 63.3241H32.0132C31.891 63.3241 31.7774 63.4397 31.5504 63.4397C31.3234 63.4397 31.2011 63.4397 31.0876 63.3241H30.9654C30.8897 63.3241 30.8111 63.2855 30.7296 63.2085L29.4199 62.5325L11.0133 53.1673C10.4283 52.8027 10.0878 52.2157 10.0878 51.6198V27.7577C9.96553 27.642 9.96553 27.4019 10.0878 27.2774C10.0878 27.2774 10.0878 27.1618 10.2013 27.1618C10.2013 27.0462 10.3235 26.9216 10.3235 26.9216L10.4283 26.806C10.4283 26.6993 10.5418 26.6993 10.5418 26.5748L10.6641 26.4592L10.7776 26.3347H11.0133L30.6161 16.1779C31.0876 15.9378 31.6552 15.9378 32.1267 16.1779L41.1815 20.776L20.6357 31.1818C20.1817 31.5375 19.8324 32.1245 19.8324 32.7204V43.1173C19.8324 44.069 20.6357 44.8872 21.5613 44.8872C22.4869 44.8872 23.3164 44.1846 23.3164 43.1173V33.9033L45.2418 22.6704L51.9652 26.0945H52.201L52.3145 26.219L52.4368 26.3347C52.5124 26.4177 52.5503 26.4977 52.5503 26.5748L52.6638 26.6993C52.6638 26.806 52.786 26.9216 52.786 26.9216C52.786 26.9216 52.786 27.0462 52.8908 27.0462C52.8908 27.1618 53.0043 27.4019 53.0043 27.5175V28.3447C51.8517 28.567 50.7341 28.9939 49.7299 29.5898C46.7262 31.3686 44.7179 34.9439 44.7179 38.5103Z" fill="#00D4FF"/>
<path d="M53.0042 28.3447V48.5514C49.0575 47.8488 45.8791 44.7627 44.9797 40.8138C44.8924 40.4581 44.8313 40.0934 44.7876 39.7199C44.744 39.3197 44.7178 38.9194 44.7178 38.5103C44.7178 34.9439 46.7261 31.3686 49.7298 29.5898C50.734 28.9939 51.8516 28.567 53.0042 28.3447Z" fill="#8E78FF"/>
<path d="M64.7394 38.5103C64.7394 43.9266 60.5307 48.3913 55.2829 48.6937C55.0995 48.6937 54.9162 48.7026 54.7328 48.7026C54.1478 48.7026 53.5627 48.6492 53.0039 48.5514V28.3446C53.7548 28.1934 54.5232 28.1312 55.2829 28.1667C56.8459 28.229 58.4001 28.6737 59.7361 29.5898C62.7398 31.6264 64.7394 34.9438 64.7394 38.5103Z" fill="#8E78FF"/>
<path d="M52.9866 51.8955C52.9691 52.0556 52.9255 52.2157 52.8644 52.3491C52.7246 52.7226 52.454 53.0073 52.0785 53.1673L44.0977 57.2318L41.5742 58.5036L38.8936 59.8733C38.9459 59.6065 39.0071 59.3397 39.0769 59.0728C40.1859 54.706 42.7268 50.9528 46.2195 48.7026C48.0619 50.3747 50.4107 51.5309 52.9866 51.8955Z" fill="#8E78FF"/>
<path d="M71.0003 64H38.4658C38.4658 62.5859 38.6143 61.2074 38.8937 59.8733L41.5743 58.5036L44.0978 57.2318L52.0786 53.1673C52.4541 53.0073 52.7248 52.7226 52.8645 52.3491C52.9256 52.2157 52.9693 52.0556 52.9867 51.8955C53.563 51.9756 54.1393 52.02 54.7331 52.02C54.9164 52.02 55.0998 52.02 55.2832 52.0022C58.2956 51.8688 60.8802 50.6237 63.2378 48.7026C67.9966 51.7621 71.0003 57.6231 71.0003 64Z" fill="#8E78FF"/>
</g>
<defs>
<clipPath id="clip0_513_1992">
<rect width="61" height="48" fill="white" transform="translate(10 16)"/>
</clipPath>
</defs>
</svg>
