<svg width="80" height="80" viewBox="0 0 80 80" fill="none" xmlns="http://www.w3.org/2000/svg">
<g clip-path="url(#clip0_513_2012)">
<path d="M47.4078 36.4377C47.4078 36.8319 47.4343 37.2176 47.4785 37.6033C47.5227 37.9632 47.5845 38.3146 47.6729 38.6574C48.7153 43.0025 52.7528 46.2592 57.5411 46.2592C57.7266 46.2592 57.9122 46.2506 58.0977 46.2506C58.2479 46.2506 58.3892 46.2335 58.5394 46.2163V49.413C58.3892 49.4216 58.2479 49.4302 58.0977 49.4388C57.9122 49.4559 57.7266 49.4559 57.5411 49.4559C54.2458 49.4559 51.2067 48.2218 48.9274 46.2592C45.3935 48.4275 42.8227 52.0441 41.7007 56.2521H9.97557C7.77576 56.2521 6 54.5723 6 52.4898V23.7623C6 21.6883 7.77576 20 9.97557 20H54.5639C56.7637 20 58.5394 21.6883 58.5394 23.7623V26.5048C58.3892 26.4877 58.2479 26.4791 58.0977 26.4705C56.1453 26.3934 54.1575 26.8905 52.4789 27.8418C49.4398 29.5558 47.4078 33.001 47.4078 36.4377Z" fill="#00D4FF"/>
<path d="M13.9863 31.496H34.0762" stroke="white" stroke-width="2" stroke-miterlimit="10" stroke-linecap="round"/>
<path d="M13.9863 41.32H29.0493" stroke="white" stroke-width="2" stroke-miterlimit="10" stroke-linecap="round"/>
<path d="M58.5398 26.5048V46.2163C58.3896 46.2335 58.2483 46.242 58.0981 46.2506C57.9126 46.2506 57.727 46.2592 57.5415 46.2592C52.7531 46.2592 48.7157 43.0025 47.6732 38.6574C47.5849 38.3146 47.5231 37.9632 47.4789 37.6032C47.4347 37.2176 47.4082 36.8319 47.4082 36.4377C47.4082 33.001 49.4402 29.5558 52.4793 27.8418C54.1578 26.8905 56.1456 26.3934 58.0981 26.4705C58.2483 26.4791 58.3896 26.4877 58.5398 26.5048Z" fill="#8E78FF"/>
<path d="M67.6652 36.4377C67.6652 41.5113 63.6455 45.7193 58.5391 46.2164V26.5048C59.9703 26.6162 61.375 27.0447 62.603 27.8418C65.6421 29.8044 67.6652 33.0011 67.6652 36.4377Z" fill="#8E78FF"/>
<path d="M58.539 49.4131V52.4898C58.539 54.5723 56.7632 56.2521 54.5634 56.2521H41.7002C42.8222 52.0441 45.3931 48.4275 48.9269 46.2592C51.2062 48.2218 54.2453 49.4559 57.5407 49.4559C57.7262 49.4559 57.9117 49.4559 58.0972 49.4388C58.2474 49.4302 58.3888 49.4216 58.539 49.4131Z" fill="#8E78FF"/>
<path d="M73.9998 61H41.082C41.082 59.3631 41.2941 57.769 41.7005 56.2521H54.5637C56.7635 56.2521 58.5392 54.5723 58.5392 52.4898V49.4131C61.4016 49.1902 63.8753 48.0161 66.1458 46.2592C70.9607 49.2074 73.9998 54.8552 73.9998 61Z" fill="#8E78FF"/>
</g>
<defs>
<clipPath id="clip0_513_2012">
<rect width="68" height="41" fill="white" transform="translate(6 20)"/>
</clipPath>
</defs>
</svg>
